FILE "GAME.ISO" BINARY
  TRACK 01 MODE2/2352
    INDEX 01 00:00:00
  TRACK 02 AUDIO
    INDEX 00 00:20:42
    INDEX 01 00:22:42
  TRACK 03 AUDIO
    INDEX 00 05:41:47
    INDEX 01 05:43:47
  TRACK 04 AUDIO
    INDEX 00 09:14:49
    INDEX 01 09:16:49
